<?xml version="1.0" encoding="utf-8"?>
<svg viewBox="100.688 149.672 303.16 174.349" xmlns="http://www.w3.org/2000/svg">
  <path fill-rule="evenodd" clip-rule="evenodd" d="M 331.199 310.538 C 363.846 299.554 388.565 268.55 385.024 223.729 C 379.643 155.629 313.999 138.736 273.106 158.796 C 217.632 186.009 210.606 190.471 170.873 190.471 C 141.279 190.471 111.147 204.724 107.381 243.261 C 104.651 271.194 115.632 295.576 156.271 308.025 C 230.233 330.682 299.651 321.153 331.199 310.538 Z" fill="#DAF7F3"/>
  <path fill-rule="evenodd" clip-rule="evenodd" d="M 233.223 219.252 C 233.227 219.252 233.23 219.252 233.233 219.252 C 239.494 219.252 244.569 213.988 244.569 207.495 C 244.569 201.003 239.494 195.739 233.233 195.739 C 228.152 195.739 223.852 199.205 222.411 203.982 C 221.656 203.719 220.847 203.577 220.007 203.577 C 215.833 203.577 212.449 207.086 212.449 211.414 C 212.449 215.743 215.833 219.252 220.007 219.252 C 220.011 219.252 220.015 219.252 220.02 219.252 L 233.223 219.252 Z" fill="white"/>
  <path fill-rule="evenodd" clip-rule="evenodd" d="M 207.316 279.025 C 210.82 279.025 213.66 276.217 213.66 272.755 C 213.66 269.292 210.82 266.485 207.316 266.485 C 206.16 266.485 205.076 266.79 204.143 267.324 L 204.143 267.268 C 204.143 260.776 198.817 255.512 192.247 255.512 C 186.956 255.512 182.472 258.925 180.926 263.644 C 180.239 263.452 179.514 263.35 178.764 263.35 C 174.384 263.35 170.833 266.859 170.833 271.187 C 170.833 275.516 174.384 279.025 178.764 279.025 C 178.768 279.025 178.772 279.025 178.776 279.025 L 207.316 279.025 Z" fill="white"/>
  <rect x="0.445" y="0.55" width="50.58" height="100.068" rx="7.5" transform="matrix(0.994522, 0.104528, -0.103907, 0.994587, 112.188622, 191.926545)" fill="#42CBA5" stroke="#316474"/>
  <rect x="0.445" y="0.55" width="50.403" height="99.722" rx="7.5" transform="matrix(0.994522, 0.104528, -0.103907, 0.994587, 112.559716, 188.265855)" fill="white" stroke="#316474"/>
  <path d="M 158.795 202.045 L 150.226 284.068 C 149.91 287.089 147.205 289.281 144.184 288.963 L 111.215 285.498 C 108.194 285.18 106.001 282.474 106.316 279.453 L 114.886 197.43 C 115.201 194.409 117.906 192.217 120.927 192.535 L 126.186 193.087 L 148.638 195.447 L 153.896 196 C 156.917 196.317 159.11 199.024 158.795 202.045 Z" fill="#EEFEFA" stroke="#316474"/>
  <path d="M 127.835 253.246 C 128.697 253.328 129.566 253.428 130.436 253.519 C 130.674 251.341 130.905 249.153 131.126 246.973 L 128.516 246.699 C 128.278 248.878 128.039 251.064 127.835 253.246 Z M 125.104 243.639 L 127.373 241.805 L 129.211 244.07 L 130.346 243.153 L 128.508 240.887 L 130.777 239.053 L 129.859 237.921 L 127.589 239.755 L 125.752 237.49 L 124.616 238.407 L 126.455 240.672 L 124.185 242.506 L 125.104 243.639 Z M 124.288 248.924 C 124.16 250.225 124.023 251.524 123.878 252.823 C 124.755 252.932 125.626 253.006 126.504 253.107 C 126.65 251.797 126.779 250.493 126.917 249.183 C 126.039 249.091 125.164 248.965 124.288 248.924 Z M 141.136 240.087 C 140.63 244.888 140.117 249.68 139.62 254.483 C 140.5 254.566 141.368 254.675 142.248 254.75 C 142.744 249.957 143.248 245.173 143.761 240.38 C 142.896 240.238 142.014 240.188 141.136 240.087 Z M 136.872 242.755 C 136.483 246.527 136.069 250.297 135.689 254.069 C 136.559 254.16 137.43 254.243 138.29 254.342 C 138.737 250.43 139.116 246.502 139.545 242.588 C 138.69 242.438 137.814 242.406 136.956 242.282 C 136.915 242.437 136.887 242.595 136.872 242.755 Z M 132.74 244.492 C 132.697 244.65 132.68 244.82 132.663 244.982 C 132.366 247.877 132.045 250.761 131.758 253.657 L 134.368 253.931 C 134.492 252.911 134.582 251.896 134.698 250.876 C 134.895 248.84 135.153 246.802 135.324 244.762 C 134.462 244.681 133.601 244.591 132.74 244.492 Z" fill="#316474"/>
  <path d="M 119.526 198.798 C 119.433 199.694 120.092 200.504 120.994 200.602 C 121.9 200.7 122.719 200.043 122.813 199.143 C 122.906 198.247 122.248 197.437 121.345 197.339 C 120.439 197.241 119.62 197.898 119.526 198.798 Z" fill="white" stroke="#316474"/>
  <path d="M 333.441 286.987 L 299.578 289.349 C 299.284 289.369 299.038 289.329 298.883 289.269 C 298.842 289.254 298.813 289.239 298.794 289.227 L 298.09 279.185 C 298.108 279.171 298.134 279.152 298.172 279.131 C 298.317 279.05 298.555 278.977 298.849 278.956 L 332.712 276.594 C 333.006 276.574 333.252 276.614 333.407 276.674 C 333.448 276.69 333.476 276.704 333.495 276.716 L 334.2 286.758 C 334.182 286.772 334.156 286.791 334.118 286.812 C 333.973 286.893 333.735 286.967 333.441 286.987 Z" fill="white" stroke="#316474"/>
  <path d="M 385.368 275.988 L 246.498 285.672 C 243.628 285.872 241.127 283.709 240.927 280.849 L 234.693 191.944 C 234.492 189.085 236.665 186.595 239.537 186.395 L 378.407 176.71 C 381.281 176.51 383.778 178.673 383.979 181.533 L 390.212 270.438 C 390.413 273.298 388.241 275.787 385.368 275.988 Z" fill="white"/>
  <path d="M 246.498 285.672 C 243.628 285.872 241.127 283.709 240.927 280.849 L 234.693 191.944 C 234.492 189.085 236.665 186.595 239.537 186.395 L 378.407 176.71 C 381.281 176.51 383.778 178.673 383.979 181.533 L 390.212 270.438 C 390.413 273.298 388.241 275.787 385.368 275.988" stroke="#316474"/>
  <path d="M 380.199 271.714 L 250.314 280.772 C 247.89 280.941 245.808 279.17 245.646 276.859 L 239.977 196.004 C 239.815 193.694 241.628 191.651 244.053 191.482 L 373.938 182.424 C 376.365 182.254 378.444 184.026 378.606 186.337 L 384.275 267.191 C 384.437 269.502 382.626 271.545 380.199 271.714 Z" fill="#EEFEFA" stroke="#316474"/>
  <path d="M 331.832 280.279 L 400.325 275.502 L 400.745 281.498 C 400.8 282.279 400.647 282.976 400.382 283.47 C 400.112 283.97 399.771 284.196 399.459 284.218 L 234.428 295.727 C 234.116 295.749 233.747 295.572 233.411 295.114 C 233.079 294.662 232.83 293.993 232.775 293.212 L 232.355 287.216 L 300.849 282.44 C 301.11 283.23 301.501 283.923 301.991 284.438 C 302.563 285.038 303.299 285.424 304.116 285.367 L 329.005 283.631 C 329.822 283.574 330.496 283.091 330.979 282.417 C 331.392 281.84 331.684 281.099 331.832 280.279 Z" fill="#42CBA5" stroke="#316474"/>
  <path d="M 332.001 279.36 L 401.909 274.484 L 402.167 278.16 C 402.225 278.99 401.598 279.712 400.764 279.77 L 232.492 291.505 C 231.659 291.563 230.937 290.936 230.879 290.106 L 230.621 286.43 L 300.53 281.554 C 301.119 282.7 302.343 283.456 303.718 283.36 L 329.096 281.59 C 330.47 281.494 331.577 280.577 332.001 279.36 Z" fill="white" stroke="#316474"/>
  <ellipse rx="15.997" ry="15.997" transform="matrix(0.997577, -0.06957, 0.069943, 0.997551, 312.29291, 233.862459)" fill="#42CBA5" stroke="#316474"/>
  <path d="M 309.818 237.419 L 306.411 234.669 C 306.411 234.668 306.41 234.668 306.41 234.668 C 305.591 234 304.378 234.111 303.695 234.917 C 303.008 235.729 303.12 236.936 303.944 237.609 L 303.946 237.611 L 309.023 241.721 C 309.023 241.721 309.023 241.722 309.023 241.722 C 309.912 242.447 311.245 242.247 311.876 241.289 L 319.917 229.079 C 320.502 228.191 320.242 227.006 319.344 226.436 C 318.451 225.87 317.258 226.12 316.677 227.003 L 309.818 237.419 Z" fill="white" stroke="#316474"/>
</svg>